<?xml version="1.0" encoding="UTF-8"?>
<svg version="1.1" xmlns="http://www.w3.org/2000/svg" width="219" height="174">
<path d="M0 0 C7.87544816 1.12506402 7.87544816 1.12506402 11.21948242 2.45874023 C11.96683151 2.7525206 12.7141806 3.04630096 13.48417664 3.34898376 C14.26670303 3.66565506 15.04922943 3.98232635 15.85546875 4.30859375 C16.67952713 4.63537613 17.50358551 4.96215851 18.35261536 5.29884338 C20.96715096 6.33793084 23.57722947 7.38775135 26.1875 8.4375 C27.95221045 9.13933482 29.71718209 9.84051326 31.48242188 10.54101562 C33.16950418 11.21295609 34.85636113 11.8854627 36.54296875 12.55859375 C37.33156784 12.87324081 38.12016693 13.18788788 38.93266296 13.5120697 C39.67055557 13.80900223 40.40844818 14.10593475 41.16870117 14.41186523 C41.81377121 14.6708812 42.45884125 14.92989716 43.12345886 15.19676208 C45.11866318 16.05079279 47.0588233 17.02941165 49 18 C49 65.85 49 113.7 49 163 C51.97 163 54.94 163 58 163 C58 130 58 97 58 63 C73.18127002 69.07250801 73.18127002 69.07250801 78 75 C80.58702155 81.32902652 79.7467206 88.54193269 79.46484375 95.2265625 C79.43682784 97.18516884 79.41549427 99.1438811 79.40052795 101.10263062 C79.34354525 106.23146432 79.19651015 111.35381312 79.02996826 116.48010254 C78.84871411 122.64465786 78.7805265 128.81139618 78.69316864 134.9778595 C78.54822228 144.32306769 78.26078935 153.65408253 78 163 C90.87 163 103.74 163 117 163 C117 165.31 117 167.62 117 170 C48.36 170 -20.28 170 -91 170 C-91 167.69 -91 165.38 -91 163 C-78.13 163 -65.26 163 -52 163 C-52 139.24 -52 115.48 -52 91 C-50.35 91.66 -48.7 92.32 -47 93 C-46.33323242 93.21747894 -45.66646484 93.43495789 -44.97949219 93.6590271 C-39.36612914 95.53862796 -34.39298669 98.00214243 -31 103 C-28.41387102 112.11792432 -29.41961223 122.11753739 -29.90136719 131.50036621 C-30.06625139 135.0521108 -30.13836239 138.60567331 -30.21875 142.16015625 C-30.38941377 149.111251 -30.66174327 156.05509455 -31 163 C-28.69 163 -26.38 163 -24 163 C-24 132.64 -24 102.28 -24 71 C-15.75 66.38 -7.5 61.76 1 57 C8.94227755 52.48218602 8.94227755 52.48218602 16.86914062 47.9375 C18.24682617 47.15246094 18.24682617 47.15246094 19.65234375 46.3515625 C20.44632568 45.89604004 21.24030762 45.44051758 22.05834961 44.97119141 C24 44 24 44 26 44 C26 83.27 26 122.54 26 163 C28.64 163 31.28 163 34 163 C34 119.11 34 75.22 34 30 C24.43 35.28 14.86 40.56 5 46 C3.35 46.66 1.7 47.32 0 48 C0 32.16 0 16.32 0 0 Z " fill="#FFFFFF" transform="translate(98,0)"/>
<path d="M0 0 C3.19319107 2.24386399 3.90367244 3.64679896 4.9375 7.4375 C5.00779003 11.44403151 4.53249114 12.94354518 2 16 C-0.61457103 18.05430581 -2.06354429 18 -5.4375 18 C-10.08124769 16.69649188 -11.55611574 15.12405469 -14 11 C-14.07081741 6.89259009 -13.67619029 4.8565077 -11.125 1.625 C-7.26551951 -1.32636744 -4.56474746 -1.21105545 0 0 Z M-9.9375 3.625 C-11.295454 6.66042658 -11.42030443 8.70761528 -11 12 C-10.06402685 14.01951062 -10.06402685 14.01951062 -8 15 C-4.5906288 15.36528977 -2.11976176 15.6140629 0.9375 13.9375 C2.6140629 10.88023824 2.36528977 8.4093712 2 5 C1.08333333 2.91666667 1.08333333 2.91666667 -1 2 C-5.85275921 1.33914827 -5.85275921 1.33914827 -9.9375 3.625 Z " fill="#FFFFFF" transform="translate(193,59)"/>
<path d="M0 0 C1.67542976 0.28604898 3.34385343 0.61781233 5 1 C6.04005702 4.38018531 6.08004482 7.4780279 6 11 C3.66666667 11 1.33333333 11 -1 11 C-1.02688151 9.35425434 -1.04634123 7.70838587 -1.0625 6.0625 C-1.07410156 5.14597656 -1.08570313 4.22945313 -1.09765625 3.28515625 C-1 1 -1 1 0 0 Z " fill="#FFFFFF" transform="translate(186,62)"/>
</svg>
